<?xml version="1.0" encoding="UTF-8"?>
<!DOCTYPE svg PUBLIC "-//W3C//DTD SVG 1.1//EN" "http://www.w3.org/Graphics/SVG/1.1/DTD/svg11.dtd">
<svg xmlns="http://www.w3.org/2000/svg" xml:space="preserve" width="174.212" height="80.6779" style="shape-rendering:geometricPrecision; text-rendering:geometricPrecision; image-rendering:optimizeQuality; fill-rule:evenodd; clip-rule:evenodd"
viewBox="0 0 174.212 80.6779"
 xmlns:xlink="http://www.w3.org/1999/xlink">
 <defs>
  <style type="text/css">
   <![CDATA[
    .fil3 {fill:#322D28;fill-rule:nonzero}
    .fil0 {fill:#DAD9D9;fill-rule:nonzero}
    .fil2 {fill:#FF3D00;fill-rule:nonzero}
   ]]>
  </style>
 </defs>
 <g>
  <path class="fil0" d="M66.4211 80.627l5.18928 -2.99604 -14.9063 -8.60613c-0.676355,-0.388742 -1.05522,-1.09636 -1.05585,-1.82421l-0.00889941 0 0 -40.0284 0.00889941 0c-0.000404519,-0.356208 0.0897453,-0.717327 0.279985,-1.0484 0.19781,-0.344072 0.478083,-0.611112 0.801467,-0.790545l43.7903 -25.2823 8.41578 0 -46.9754 27.1212 30.4576 17.5847 30.0877 -17.3711 0 -27.3348 4.22624 0 0 27.3348 30.0877 17.3711 17.3415 -10.0121 0 4.85885 -13.1337 7.5827 13.1337 7.58276 0 4.8589 -17.3417 -10.0122 -30.0876 17.3712 0 13.64 -4.22624 0 0 -13.64 -30.0877 -17.3712 -30.4576 17.5848 14.8878 8.5955 0.0480799 0.0277384 0.0019648 0.00109798 8.31736 4.80204 -8.41589 0 -0.981478 -0.566673 -0.981535 0.566673 -8.4156 0zm73.881 -80.576l8.41589 0 25.4433 14.6897 0 4.8589 -33.8592 -19.5486zm33.8592 74.7223l0 5.71995 -0.741656 -0.428212 -0.973387 0.561992 -8.43231 0 8.34909 -4.82036c0.0394117,-0.0227686 0.0793434,-0.0440925 0.119449,-0.0640873l1.67881 -0.969284zm-114.296 -43.9516l0 32.7295 28.3446 -16.3647 -28.3446 -16.3647zm36.7605 16.3647l27.9929 16.1617 27.9929 -16.1617 -27.9929 -16.1616 -27.9929 16.1616z"/>
  <path class="fil2" d="M9.59801 55.4888l6.1217 -3.53434 -6.13221 -3.5404c-0.278251,-0.159958 -0.434106,-0.45098 -0.434395,-0.75044l-0.00364067 0 0 -16.467 0.00364067 0c-0.000115577,-0.146551 0.0369846,-0.295125 0.11523,-0.431275 0.081366,-0.141582 0.196654,-0.251437 0.329683,-0.325233l27.292 -15.757 3.79028 -6.56499c0.240053,-0.4144 0.770666,-0.555809 1.18512,-0.315756 0.0151983,0.00884162 0.0299922,0.0180878 0.044497,0.0276228l27.4598 15.854c0.414458,0.238204 0.557369,0.767314 0.319165,1.18177l-0.00144471 0.0024849 0.00144471 0.000866826 -3.78531 6.55632 0 16.2383 0 8.58169 -0.0019648 0c0.000173365,0.147765 -0.0375047,0.297552 -0.116906,0.434684 -0.0887629,0.153197 -0.217284,0.269063 -0.364934,0.342165l-27.462 15.8552c-0.281314,0.161692 -0.615446,0.147765 -0.875609,-0.00751249l-27.4947 -15.8741c-0.414458,-0.238204 -0.557369,-0.767314 -0.319165,-1.18171 0.081366,-0.141582 0.196654,-0.251437 0.329683,-0.325233zm1.29007 -22.7909l0 13.4644 11.6605 -6.73217 -11.6605 -6.73223zm13.3915 5.73278l12.3776 -7.14623 0 -14.4681 -24.9074 14.3803 12.5297 7.23406zm14.4307 -23.4316l26.0057 15.0143 3.03863 -5.26308 -26.0057 -15.0143 -3.03863 5.26308zm25.4546 17.6988l-11.6605 6.73217 11.6605 6.73223 0 -13.4644zm-13.3916 7.73168l-12.3775 7.14617 0 14.4662 18.7718 -10.8379c0.0162385,-0.00936172 0.0326504,-0.0181455 0.0491201,-0.0263515l6.08644 -3.514 -12.5298 -7.23406zm-14.1161 7.14617l-12.3776 -7.14617 -12.5297 7.23406 6.12458 3.53601 0.0197636 0.0114421 0.000809037 0.000462307 11.3747 6.56719 7.38749 4.26519 0 -14.4682zm-10.6465 -8.14568l11.5158 6.64873 11.5158 -6.64873 -11.5158 -6.64861 -11.5158 6.64861zm24.7627 -0.999392l12.5298 -7.23406 -24.9074 -14.3803 0 14.4681 12.3776 7.14623zm8.56169 13.5228l4.82984 2.78858 0 -5.5771 -4.82984 2.78852zm-21.462 12.3849c-0.104828,0.0459418 -0.214799,0.0694616 -0.324193,0.0722355l-0.00849489 0.000173365 -0.00554768 5.77884e-005 -0.00866826 5.77884e-005 -0.00531653 0 -0.00884162 -0.000115577 -0.00520095 -5.77884e-005 -0.00901499 -0.000288942c-0.110202,-0.00352509 -0.221041,-0.0282007 -0.326273,-0.0757028l-0.00156029 -0.00069346 -0.00884162 -0.00410297 -0.000288942 -0.000115577c-0.0268138,-0.0125401 -0.0531653,-0.0264093 -0.0787078,-0.0416076l-13.9636 -8.06194 -5.66788 -3.27232 -5.70082 3.29139 25.7767 14.8822 25.775 -14.8812 -5.6992 -3.29047 -19.6411 11.3398 -0.000809037 -0.00138692c-0.0173943,0.0100552 -0.0351353,0.0195325 -0.0531653,0.0283163l-0.00277384 0.00138692 -0.00589441 0.00277384 -0.00034673 0.000173365 -0.0123089 0.00572105 -0.00855268 0.00387182 -0.00421855 0.00184923z"/>
  <path class="fil3" d="M138.428 69.5115l-2.01069 0 0 3.46031 -3.44471 0 0 -3.46031 -7.12323 0 0 -2.45491 7.31416 -10.7744 3.25377 0 0 10.49 2.01069 0 0 2.73934zm-5.4554 -2.73934l0 -2.82903c0,-0.471495 0.0194747,-1.15733 0.0545522,-2.0575 0.0389494,-0.89624 0.0701551,-1.41842 0.0935016,-1.56254l-0.0935016 0c-0.280563,0.623421 -0.619607,1.23135 -1.01315,1.82756l-3.06284 4.62151 4.02143 0zm18.3341 -2.14713c0,2.91473 -0.479297,5.07353 -1.43396,6.47634 -0.954722,1.39894 -2.42376,2.10032 -4.4111,2.10032 -1.92499,0 -3.37842,-0.724782 -4.35655,-2.17047 -0.978068,-1.44563 -1.46517,-3.58103 -1.46517,-6.40619 0,-2.94201 0.475425,-5.11641 1.42622,-6.51142 0.950792,-1.39501 2.41596,-2.09645 4.3955,-2.09645 1.92499,0 3.38235,0.732583 4.36822,2.19388 0.981998,1.46129 1.47684,3.60056 1.47684,6.41399zm-8.16359 0c0,2.0497 0.17926,3.51486 0.529919,4.4033 0.354647,0.884567 0.95085,1.32879 1.78861,1.32879 0.822213,0 1.41454,-0.448149 1.78081,-1.34826 0.36632,-0.89624 0.549452,-2.35753 0.549452,-4.38383 0,-2.04577 -0.187061,-3.5148 -0.553324,-4.4111 -0.370192,-0.89231 -0.962523,-1.34046 -1.77693,-1.34046 -0.830014,0 -1.42229,0.448149 -1.78081,1.34046 -0.358461,0.896298 -0.537721,2.36534 -0.537721,4.4111zm21.9775 4.88647l-2.01069 0 0 3.46031 -3.44471 0 0 -3.46031 -7.12323 0 0 -2.45491 7.31416 -10.7744 3.25377 0 0 10.49 2.01069 0 0 2.73934zm-5.4554 -2.73934l0 -2.82903c0,-0.471495 0.0194747,-1.15733 0.0545522,-2.0575 0.0389494,-0.89624 0.0701551,-1.41842 0.0935016,-1.56254l-0.0935016 0c-0.280563,0.623421 -0.619607,1.23135 -1.01315,1.82756l-3.06284 4.62151 4.02143 0z"/>
 </g>
</svg>