<?xml version="1.0" encoding="UTF-8"?>
<!DOCTYPE svg PUBLIC "-//W3C//DTD SVG 1.1//EN" "http://www.w3.org/Graphics/SVG/1.1/DTD/svg11.dtd">
<svg version="1.1" xmlns="http://www.w3.org/2000/svg" xmlns:xlink="http://www.w3.org/1999/xlink" x="0" y="0" viewBox="0 0 50 50" enable-background="new 0 0 50 50" xml:space="preserve">
	<path fill="#fff" d="M25.1623 30.8958c-1.2308,0.4562 -2.5449,0.6951 -3.896,0.6951 -1.5051,0 -2.9654,-0.2939 -4.316,-0.8546 -1.3501,-0.5604 -2.5905,-1.3879 -3.6558,-2.4551 -2.1963,-2.2019 -3.2945,-5.0943 -3.2945,-7.9865 0,-2.8921 1.0982,-5.7847 3.2945,-7.9866 1.0647,-1.0674 2.3048,-1.8952 3.6547,-2.4558 1.3505,-0.5608 2.8112,-0.8548 4.3162,-0.8548 1.5048,0 2.9655,0.294 4.316,0.8548 1.3499,0.5606 2.59,1.3884 3.6546,2.4558 2.0695,2.0741 3.1628,4.7603 3.2811,7.4819 0.1178,2.7089 -0.73,5.4534 -2.5418,7.6641l9.7155 9.7394c0.2065,0.2071 0.3094,0.4787 0.3092,0.7497 -0.0004,0.2712 -0.1045,0.5425 -0.3115,0.7491l0.0003 0.0003c-0.1008,0.1008 -0.2182,0.1774 -0.3435,0.2293 -0.13,0.0537 -0.2682,0.0806 -0.4053,0.0806 -0.1381,0 -0.2768,-0.0271 -0.407,-0.0812 -0.1249,-0.0518 -0.2423,-0.1289 -0.3438,-0.231l-9.7056 -9.7305c-0.9988,0.8389 -2.1204,1.4909 -3.3213,1.936zm-7.3993 -19.0838c-1.0958,0.4551 -2.1024,1.127 -2.9661,1.9929 -1.7839,1.789 -2.6759,4.1394 -2.6759,6.4898 0,2.3504 0.892,4.7007 2.6759,6.4897 0.8638,0.8661 1.8703,1.5379 2.9662,1.993 1.0953,0.4548 2.2807,0.6932 3.5032,0.6932 1.2224,0 2.4078,-0.2384 3.5031,-0.6932 1.0958,-0.4551 2.1022,-1.1269 2.9661,-1.993 1.7845,-1.789 2.6768,-4.1393 2.6768,-6.4897 0,-2.3504 -0.8923,-4.7008 -2.6768,-6.4898 -0.8638,-0.8661 -1.8701,-1.5378 -2.9661,-1.9929 -1.0952,-0.4549 -2.2807,-0.6933 -3.5031,-0.6933 -1.2225,0 -2.4079,0.2384 -3.5033,0.6933z"/>
</svg>