<?xml version="1.0" encoding="UTF-8"?>
<!DOCTYPE svg PUBLIC "-//W3C//DTD SVG 1.1//EN" "http://www.w3.org/Graphics/SVG/1.1/DTD/svg11.dtd">
<svg version="1.1" xmlns="http://www.w3.org/2000/svg" xmlns:xlink="http://www.w3.org/1999/xlink" x="0" y="0" viewBox="0 0 256 256" enable-background="new 0 0 256 256" xml:space="preserve">
	<path fill="#222" d="M40 61c-6,-6 -6,-15 0,-21 6,-6 15,-6 21,0l67 67 67 -67c6,-6 15,-6 21,0 6,6 6,15 0,21l-67 67 67 67c6,6 6,15 0,21 -6,6 -15,6 -21,0l-67 -67 -67 67c-6,6 -15,6 -21,0 -6,-6 -6,-15 0,-21l67 -67 -67 -67z"/>
</svg>