<?xml version="1.0" encoding="UTF-8"?>
<!DOCTYPE svg PUBLIC "-//W3C//DTD SVG 1.1//EN" "http://www.w3.org/Graphics/SVG/1.1/DTD/svg11.dtd">
<svg version="1.1" xmlns="http://www.w3.org/2000/svg" xmlns:xlink="http://www.w3.org/1999/xlink" x="0" y="0" viewBox="0 0 100 100" enable-background="new 0 0 100 100" xml:space="preserve">
	<path fill="#fff" d="M34.6022 24.7227c2.7276,0 5.1978,1.1061 6.9855,2.894 1.7879,1.788 2.894,4.258 2.894,6.9855 0,2.7278 -1.1061,5.1978 -2.894,6.9855 -1.7877,1.7879 -4.2579,2.894 -6.9855,2.894 -2.7275,0 -5.1975,-1.1061 -6.9855,-2.894 -1.7879,-1.7877 -2.894,-4.2579 -2.894,-6.9855 0,-2.7275 1.1061,-5.1975 2.894,-6.9855 1.788,-1.7879 4.258,-2.894 6.9855,-2.894zm-6.6269 50.1276c-0.7801,0.7802 -2.0455,0.7802 -2.8256,0 -0.7802,-0.7801 -0.7802,-2.0455 0,-2.8256l46.875 -46.875c0.7801,-0.7802 2.0455,-0.7802 2.8256,0 0.7802,0.7801 0.7802,2.0455 0,2.8256l-46.875 46.875zm37.4225 -19.332c2.7275,0 5.1975,1.1061 6.9855,2.894 1.7879,1.7877 2.894,4.258 2.894,6.9855 0,2.7275 -1.1061,5.1975 -2.894,6.9855 -1.788,1.7879 -4.258,2.894 -6.9855,2.894 -2.7275,0 -5.1978,-1.1061 -6.9855,-2.894 -1.7879,-1.788 -2.894,-4.258 -2.894,-6.9855 0,-2.7278 1.1061,-5.1978 2.894,-6.9855 1.7877,-1.7879 4.258,-2.894 6.9855,-2.894zm4.1599 5.7197c-1.0647,-1.0647 -2.5357,-1.7235 -4.1599,-1.7235 -1.6242,0 -3.0953,0.6588 -4.1598,1.7235 -1.0647,1.0645 -1.7235,2.5354 -1.7235,4.1598 0,1.6242 0.6588,3.0952 1.7235,4.1599 1.0645,1.0646 2.5356,1.7234 4.1598,1.7234 1.6242,0 3.0952,-0.6588 4.1599,-1.7234 1.0646,-1.0647 1.7234,-2.5357 1.7234,-4.1599 0,-1.6242 -0.6588,-3.0953 -1.7234,-4.1598zm-30.7957 -30.7957c-1.0645,-1.0646 -2.5356,-1.7234 -4.1598,-1.7234 -1.6242,0 -3.0952,0.6588 -4.1599,1.7234 -1.0646,1.0647 -1.7234,2.5357 -1.7234,4.1599 0,1.6242 0.6588,3.0953 1.7234,4.1598 1.0647,1.0647 2.5357,1.7235 4.1599,1.7235 1.6242,0 3.0953,-0.6588 4.1598,-1.7235 1.0647,-1.0645 1.7235,-2.5354 1.7235,-4.1598 0,-1.6242 -0.6588,-3.0952 -1.7235,-4.1599z"/>
</svg>