<?xml version="1.0" encoding="UTF-8"?>
<!DOCTYPE svg PUBLIC "-//W3C//DTD SVG 1.1//EN" "http://www.w3.org/Graphics/SVG/1.1/DTD/svg11.dtd">
<svg version="1.1" xmlns="http://www.w3.org/2000/svg" xmlns:xlink="http://www.w3.org/1999/xlink" x="0" y="0" viewBox="0 0 100 100" enable-background="new 0 0 100 100" xml:space="preserve">
	<path fill="#fff" d="M27.9753 74.8503c-0.7801,0.7802 -2.0455,0.7802 -2.8256,0 -0.7802,-0.7801 -0.7802,-2.0455 0,-2.8256l5.5083 -5.5083c-3.7989,-4.4442 -6.0936,-10.213 -6.0936,-16.5164 0,-7.0225 2.8476,-13.3816 7.4508,-17.9847 4.6031,-4.6031 10.9623,-7.4509 17.9848,-7.4509 6.3034,0 12.072,2.2947 16.5164,6.0936l5.5083 -5.5083c0.7801,-0.7802 2.0455,-0.7802 2.8256,0 0.7802,0.7801 0.7802,2.0455 0,2.8256l-5.5083 5.5083c3.7989,4.4442 6.0936,10.213 6.0936,16.5164 0,7.0225 -2.8476,13.3816 -7.4508,17.9847 -4.6031,4.6031 -10.9623,7.4509 -17.9848,7.4509 -6.3034,0 -12.072,-2.2947 -16.5164,-6.0936l-5.5083 5.5083zm5.5185 -11.1697l30.1868 -30.1868c-3.7126,-3.0807 -8.4808,-4.9332 -13.6806,-4.9332 -5.9192,0 -11.2792,2.4003 -15.1592,6.2803 -3.8799,3.8799 -6.2802,9.2399 -6.2802,15.1591 0,5.2 1.8525,9.9681 4.9332,13.6806zm33.0124 -27.3612l-30.1868 30.1868c3.7126,3.0807 8.4808,4.9332 13.6806,4.9332 5.9192,0 11.2792,-2.4003 15.1592,-6.2803 3.8799,-3.8799 6.2802,-9.2399 6.2802,-15.1591 0,-5.2 -1.8525,-9.9681 -4.9332,-13.6806z"/>
</svg>