<?xml version="1.0" encoding="UTF-8"?>
<!DOCTYPE svg PUBLIC "-//W3C//DTD SVG 1.1//EN" "http://www.w3.org/Graphics/SVG/1.1/DTD/svg11.dtd">
<svg xmlns="http://www.w3.org/2000/svg" xml:space="preserve" width="256px" height="256px" version="1.1" style="shape-rendering:geometricPrecision; text-rendering:geometricPrecision; image-rendering:optimizeQuality; fill-rule:evenodd; clip-rule:evenodd"
viewBox="0 0 256 256"
 xmlns:xlink="http://www.w3.org/1999/xlink">
 <g>
  <path fill="#107fc9" d="M72 208l4 -92c0,-1 0,-1 0,-1 0,-1 0,-1 -1,-1 0,0 0,-1 -1,-1 0,0 0,0 -1,0l-35 7c-2,0 -5,0 -7,-1 -2,-2 -4,-4 -5,-6l-9 -34c0,-3 0,-6 1,-8 2,-2 4,-4 7,-5l61 -16c2,-1 4,0 4,2 0,1 0,1 0,1 1,3 1,6 2,9l32 0 0 -8c-2,0 -5,-2 -7,-4 -2,-2 -4,-6 -4,-10 0,-5 2,-8 4,-11 3,-3 7,-5 11,-5 4,0 8,2 11,5 2,3 4,6 4,11 0,2 -2,3 -4,3 -2,0 -3,-1 -3,-3 0,-3 -1,-4 -3,-6 -1,-1 -3,-2 -5,-2 -2,0 -4,1 -5,2 -2,2 -3,3 -3,6 0,2 1,4 3,5 1,1 3,2 5,2 2,0 4,2 4,4l0 11 32 0c1,-3 1,-6 2,-9 0,-2 2,-4 4,-3 0,0 0,0 0,0l0 0 61 16c0,0 1,0 1,0 2,1 4,3 6,5 1,2 1,5 1,7 0,1 0,1 0,1l-9 34c-1,2 -3,4 -5,6 -2,1 -5,1 -7,1l-35 -7c-1,0 -1,0 -1,0 -1,0 -1,1 -1,1 -1,0 -1,0 -1,1 0,0 0,0 0,1l0 5c0,0 1,1 1,1 5,2 10,5 14,9 8,8 12,18 13,28 0,11 -3,21 -10,29l37 37c0,1 1,2 1,3 0,1 -1,2 -1,3l0 0c-1,0 -1,1 -2,1 0,0 -1,0 -1,0 -1,0 -1,0 -2,0 0,-1 -1,-1 -1,-1l-37 -37c-2,2 -5,4 -8,6l0 9c0,1 0,2 0,4 -1,1 -2,2 -3,3 -1,1 -2,2 -3,2 -1,1 -3,1 -4,1l-92 0c-1,0 -3,0 -4,-1 -1,0 -2,-1 -3,-2 -1,-1 -2,-2 -3,-3 0,-2 0,-3 0,-5l0 0zm108 -78l3 61c3,-2 5,-3 6,-5 7,-7 11,-16 11,-25 0,-9 -4,-17 -11,-24 -2,-3 -5,-5 -9,-7zm-4 72c-3,1 -7,2 -11,2 -6,0 -11,-1 -16,-3 -5,-2 -10,-5 -14,-9 -8,-9 -13,-20 -13,-31 0,-11 5,-22 13,-30 4,-4 9,-7 14,-9 5,-2 10,-3 16,-3 2,0 5,0 7,0l0 -3c0,-1 0,-3 1,-4 0,-2 1,-3 3,-4 1,-1 2,-2 4,-2 1,-1 3,-1 4,0l35 7c1,0 2,0 2,-1 1,0 1,-1 1,-1l9 -34c1,-1 0,-2 0,-2 0,-1 -1,-1 -2,-2l-56 -15c-3,15 -8,28 -15,37 -8,11 -18,17 -30,17 -12,0 -22,-6 -30,-17 -7,-9 -12,-22 -15,-37l-56 15c-1,1 -2,1 -2,2 0,0 -1,1 0,2l9 34c0,0 0,1 1,1 0,1 1,1 2,1l35 -7c1,-1 3,-1 4,0 2,0 3,1 4,2 2,1 3,2 3,4 1,1 1,3 1,4l-5 93c0,0 0,1 0,1 1,0 1,1 1,1 0,0 1,0 1,0 0,1 1,1 1,1l92 0c0,0 1,0 1,-1 0,0 1,0 1,0 0,0 0,-1 1,-1 0,0 0,-1 0,-1l-1 -7zm-24 -73c-4,2 -8,5 -11,8 -7,7 -11,15 -11,24 0,9 4,18 11,25 3,3 7,6 11,7 4,2 8,3 13,3 4,0 7,-1 11,-2l-3 -66c-3,-1 -5,-1 -8,-1 -5,0 -9,1 -13,2l0 0zm-58 -60c2,9 6,16 10,22 7,8 15,14 24,14 9,0 17,-6 24,-14 4,-6 8,-13 10,-22l-34 0 -34 0z"/>
  <path fill="#ffffff" fill-opacity="0.75" d="M165 126c-19,0 -35,16 -35,35 0,19 16,35 35,35 19,0 35,-16 35,-35 0,-19 -16,-35 -35,-35z"/>
 </g>
</svg>